<svg width="32" height="32" viewBox="0 0 32 32" fill="none" xmlns="http://www.w3.org/2000/svg">
<path fill-rule="evenodd" clip-rule="evenodd" d="M12 0H20C26.6274 0 32 5.37258 32 12V20C32 26.6274 26.6274 32 20 32H12C5.37258 32 0 26.6274 0 20V12C0 5.37258 5.37258 0 12 0Z" fill="#05060F"/>
<path fill-rule="evenodd" clip-rule="evenodd" d="M6 9.99343L14.3333 13.7813V25.2553L6 21.4674V17.8058L11 20.0786V15.9276L6 13.6548V9.99343ZM26 9.99343V13.6548L21 15.9276V20.0786L26 17.8058V21.4674L17.6667 25.2553V13.7813L26 9.99343ZM15.9971 5.33333L23.1608 8.60433L19.6288 10.1973L16.0028 8.54228L12.3878 10.2073L8.86683 8.62033L15.9971 5.33333Z" fill="white"/>
</svg>
