<svg width="91" height="32" viewBox="0 0 91 32" fill="none" xmlns="http://www.w3.org/2000/svg">
<path fill-rule="evenodd" clip-rule="evenodd" d="M12 0H20C26.6274 0 32 5.37258 32 12V20C32 26.6274 26.6274 32 20 32H12C5.37258 32 0 26.6274 0 20V12C0 5.37258 5.37258 0 12 0ZM45.5029 22.574C46.0465 22.574 46.5561 22.4874 47.0317 22.3144C47.5074 22.1414 47.9737 21.8756 48.4308 21.5172V22.3515H51.6553V11.8579H48.4308V18.8289C47.6772 19.4222 46.9422 19.7188 46.2256 19.7188C45.6203 19.7188 45.1909 19.5859 44.9377 19.3202C44.6844 19.0545 44.5578 18.6682 44.5578 18.1615V11.8579H41.3333V18.1615C41.3333 19.6941 41.6793 20.8127 42.3711 21.5172C43.0629 22.2217 44.1069 22.574 45.5029 22.574ZM57.2107 22.3515L58.8415 19.5149L60.5464 22.3515H64.3082L60.7873 17.0305L64.1415 11.8579H60.4167L58.8971 14.3978L57.396 11.8579H53.6342L56.8772 16.8822L53.4489 22.3515H57.2107ZM70.7902 22.6667C72.1616 22.6667 73.4155 22.3268 74.5521 21.647L73.6441 18.9772C73.1993 19.2615 72.77 19.4716 72.3561 19.6076C71.9423 19.7435 71.513 19.8115 71.0682 19.8115C70.2775 19.8115 69.7031 19.5767 69.3448 19.107C68.9865 18.6373 68.8074 17.9575 68.8074 17.0676C68.8074 16.2024 68.9927 15.5473 69.3633 15.1024C69.734 14.6574 70.3331 14.4287 71.1609 14.4164C71.655 14.4164 72.1029 14.4596 72.5044 14.5462C72.9059 14.6327 73.3352 14.7872 73.7923 15.0097V12.0803C73.3105 11.8826 72.8472 11.7466 72.4025 11.6725C71.9577 11.5983 71.4203 11.5612 70.7902 11.5612C69.0606 11.5736 67.7387 12.0587 66.8245 13.0166C65.9103 13.9745 65.4532 15.331 65.4532 17.0861C65.4532 18.8536 65.9103 20.2225 66.8245 21.1927C67.7387 22.163 69.0606 22.6543 70.7902 22.6667ZM81.4418 22.6667C82.3189 22.6667 83.0726 22.5956 83.7026 22.4535C84.3327 22.3113 84.9689 22.061 85.6114 21.7026L84.7774 19.2182C84.2091 19.5025 83.7057 19.7034 83.2671 19.8208C82.8286 19.9382 82.3684 19.9969 81.8865 19.9969C81.0588 19.9969 80.4318 19.83 80.0056 19.4963C79.5794 19.1626 79.2983 18.6991 79.1624 18.1058H85.7967V16.8266C85.7967 15.1085 85.3581 13.8015 84.4809 12.9054C83.6038 12.0093 82.3931 11.5612 80.8488 11.5612C79.8852 11.5612 79.0142 11.7744 78.2359 12.2008C77.4576 12.6273 76.8398 13.2576 76.3827 14.0919C75.9256 14.9262 75.6971 15.9243 75.6971 17.0861C75.6971 18.1985 75.9195 19.175 76.3642 20.0154C76.809 20.8559 77.4606 21.5079 78.3193 21.9714C79.1779 22.4349 80.2187 22.6667 81.4418 22.6667ZM79.181 15.7142C79.2922 15.1703 79.4867 14.7872 79.7647 14.5647C80.0427 14.3422 80.404 14.231 80.8488 14.231C81.3306 14.231 81.6981 14.3484 81.9514 14.5832C82.2047 14.8181 82.356 15.1951 82.4054 15.7142H79.181ZM91 22.6667V6.66667H87.7755V22.6389L91 22.6667Z" fill="#05060F"/>
<path fill-rule="evenodd" clip-rule="evenodd" d="M6 9.99344L14.3333 13.7813V25.2553L6 21.4674V17.8058L11 20.0786V15.9276L6 13.6548V9.99344ZM26 9.99344V13.6548L21 15.9276V20.0786L26 17.8058V21.4674L17.6667 25.2553V13.7813L26 9.99344ZM15.9971 5.33334L23.1608 8.60434L19.6288 10.1973L16.0028 8.54229L12.3878 10.2073L8.86683 8.62034L15.9971 5.33334Z" fill="white"/>
</svg>
